<?xml version="1.0" standalone="no"?>
<!DOCTYPE svg PUBLIC "-//W3C//DTD SVG 20010904//EN"
 "http://www.w3.org/TR/2001/REC-SVG-20010904/DTD/svg10.dtd">
<svg version="1.0" xmlns="http://www.w3.org/2000/svg"
 width="512.000000pt" height="512.000000pt" viewBox="0 0 512.000000 512.000000"
 preserveAspectRatio="xMidYMid meet">
<metadata>
Created by potrace 1.11, written by Peter Selinger 2001-2013
</metadata>
<g transform="translate(0.000000,512.000000) scale(0.100000,-0.100000)"
fill="#000000" stroke="none">
<path d="M2380 5109 c-30 -4 -84 -10 -120 -14 -36 -4 -68 -9 -71 -11 -4 -2
-24 -6 -45 -10 -187 -28 -471 -123 -679 -226 -183 -92 -431 -259 -546 -368
-14 -14 -43 -41 -65 -61 -234 -216 -452 -527 -587 -836 -78 -178 -161 -468
-183 -638 -3 -27 -8 -59 -10 -69 -6 -32 -18 -246 -18 -321 2 -543 172 -1066
487 -1500 169 -231 352 -409 632 -613 274 -199 752 -381 1100 -418 28 -3 77
-9 109 -13 59 -8 454 -6 511 2 17 3 50 8 75 11 44 7 156 26 175 30 6 2 28 7
50 11 22 5 42 10 45 10 83 19 246 74 350 117 790 330 1319 1036 1445 1928 34
238 37 501 9 710 -9 65 -34 183 -40 189 -9 9 -2375 7 -2380 -1 -4 -6 -7 -651
-4 -928 l0 -55 686 1 685 0 -6 -33 c-12 -64 -57 -188 -100 -275 -77 -155 -210
-311 -347 -408 -37 -26 -65 -50 -63 -54 3 -3 2 -4 -1 -2 -3 2 -47 -17 -97 -43
-123 -63 -183 -86 -302 -115 -185 -46 -228 -51 -460 -51 -159 0 -207 4 -297
23 -301 64 -551 198 -766 412 -364 360 -522 889 -413 1386 32 148 55 213 130
364 170 346 482 620 847 745 184 64 276 79 484 79 195 1 247 -4 373 -35 191
-48 378 -136 535 -253 29 -21 55 -37 57 -35 33 28 735 734 735 739 0 11 -169
142 -265 206 -135 90 -310 184 -460 247 -121 51 -332 115 -435 132 -19 3 -42
8 -50 10 -18 5 -49 10 -160 26 -96 14 -466 19 -550 8z"/>
</g>
</svg>
